<svg xmlns="http://www.w3.org/2000/svg" viewBox="0 0 488.999 393.91" width="488.999" height="393.91" xml:space="preserve"><linearGradient id="a" gradientUnits="userSpaceOnUse" x1="253.513" y1="96.776" x2="113.844" y2="161.155"><stop offset="0" style="stop-color:#d3a87d"/><stop offset="1" style="stop-color:#aa8157"/></linearGradient><path fill="url(#a)" d="M244.544 4.91v192l-5.589-2.79-180.82-90.41-5.591-2.8z"/><linearGradient id="b" gradientUnits="userSpaceOnUse" x1="235.35" y1="93.413" x2="369.74" y2="164.312"><stop offset="0" style="stop-color:#d3a87d"/><stop offset="1" style="stop-color:#aa8157"/></linearGradient><path fill="url(#b)" d="m436.544 100.91-5.589 2.8-180.82 90.41-.591.29-5 2.5v-192z"/><path fill="#F7F7F9" d="m468.504 180.91-31.96 15.98v96.02l-192 96-192-96v-94.48l-39.04-19.52 39.04-78 192 96 192-96v.01z"/><path fill="#111" d="m487.555 145.4-47.39-47.92c-.01-.01-.03-.03-.03-.04l-.02-.02c0-.01-.01-.01-.02-.02l-.08-.08c-.11-.11-.23-.21-.35-.31-.13-.1-.25-.19-.39-.28a.265.265 0 0 1-.06-.05c-.02 0-.03-.01-.04-.02-.01-.01-.02-.01-.03-.02-.03-.01-.06-.03-.09-.04-.04-.03-.09-.05-.13-.08-.05-.03-.09-.05-.14-.08l-192-96c-.04-.02-.07-.03-.11-.05-.04-.02-.08-.03-.11-.04-.03-.02-.07-.03-.11-.04l-.01-.01c-.12-.05-.24-.1-.37-.14-.07-.03-.15-.05-.23-.07-.07-.02-.15-.04-.22-.05-.05-.02-.1-.03-.15-.04-.09-.01-.18-.02-.27-.04-.07-.01-.15-.02-.23-.02-.04-.01-.08-.01-.12-.01-.1-.01-.2-.01-.31-.01-.1 0-.2 0-.3.01-.05 0-.09 0-.13.01-.08 0-.15.01-.22.02-.09.01-.18.03-.27.04-.05.01-.1.02-.15.04-.07.01-.13.03-.2.05-.07.02-.14.03-.21.06-.02 0-.04 0-.06.01-.1.03-.2.08-.3.12-.05.02-.1.04-.14.06-.05.01-.09.03-.14.06-.01 0-.02.01-.03.01-.03.01-.06.02-.08.03l-192 96c-.05.02-.09.05-.13.08-.05.02-.1.05-.15.08l-.12.06c-.04.02-.07.06-.11.08-.11.07-.21.15-.31.23-.05.04-.11.07-.16.12-.03.02-.06.05-.09.07-.11.11-.22.21-.33.32l-47.47 47.91a5.008 5.008 0 0 0-.49 6.46 4.995 4.995 0 0 0 6.28 1.53l17.95-8.97-16.15 32.26c-.6 1.19-.7 2.56-.28 3.82.42 1.26 1.32 2.3 2.51 2.89l36.28 18.14v91.39c0 1.9 1.07 3.63 2.77 4.47l192 96c.02.01.03.01.05.02.11.06.23.11.34.15.12.05.24.09.35.13.08.02.15.04.22.06.15.04.31.07.46.1.06.01.12.02.17.03.21.02.43.04.64.04.22 0 .43-.02.64-.04l.18-.03c.15-.03.3-.06.45-.1.08-.02.15-.04.23-.07.12-.03.23-.07.35-.12.1-.04.2-.09.31-.13.02-.02.05-.03.08-.04l192-96a4.986 4.986 0 0 0 2.76-4.47v-92.93l29.19-14.6a4.993 4.993 0 0 0 2.41-6.32l-14.97-37.47 23.59 11.79a4.995 4.995 0 0 0 6.28-1.53 4.998 4.998 0 0 0-.49-6.45zM20.214 176.68l34.57-69.06 183.05 91.53-34.57 69.05-183.05-91.52zm219.33 204.14-182-91v-83.3l145.72 72.86a5.003 5.003 0 0 0 6.71-2.23l29.57-59.07v162.74zm0-192-175.82-87.91L239.544 13v175.82zm10-175.82 175.82 87.91-24.27 12.14-151.55 75.77V13zm182 276.82-182 91V222.9l22.31 55.87a5.01 5.01 0 0 0 2.87 2.82c.57.21 1.18.32 1.78.32.77 0 1.53-.17 2.23-.53l152.81-76.4v84.84zm30.611-111.32-183.03 91.51-28.23-70.68 161.39-80.69 21.64-10.82 10.8 27.04 17.43 43.64z"/></svg>
